<svg xmlns="http://www.w3.org/2000/svg" version="1.1" xmlns:xlink="http://www.w3.org/1999/xlink" width="1000" height="1000"><g clip-path="url(#SvgjsClipPath1003)"><rect width="1000" height="1000" fill="#000000"></rect><g transform="matrix(3.5,0,0,3.5,150,150)"><svg xmlns="http://www.w3.org/2000/svg" version="1.1" xmlns:xlink="http://www.w3.org/1999/xlink" width="200" height="200"><svg xmlns="http://www.w3.org/2000/svg" version="1.1" xmlns:xlink="http://www.w3.org/1999/xlink" viewBox="0 0 200 200"><rect width="200" height="200" fill="url('#gradient')"></rect><defs><linearGradient id="gradient" gradientTransform="rotate(146 0.5 0.5)"><stop offset="0%" stop-color="#d65c96"></stop><stop offset="100%" stop-color="#71d9b0"></stop></linearGradient><clipPath id="SvgjsClipPath1003"><rect width="1000" height="1000" x="0" y="0" rx="350" ry="350"></rect></clipPath></defs><g><g fill="#314bd1" transform="matrix(1.7983692243361906,0,0,1.7983692243361906,14.790454368555913,113.21265459774479)" stroke="#5b8d84" stroke-width="0.2"><path d="M9.17-4.81L12.58-4.81Q12.51-3.33 11.78-2.19Q11.04-1.05 9.72-0.43Q8.40 0.20 6.70 0.20L6.70 0.20Q3.90 0.20 2.29-1.63Q0.67-3.46 0.67-6.79L0.67-6.79L0.67-7.49Q0.67-9.58 1.40-11.15Q2.13-12.71 3.50-13.57Q4.86-14.42 6.66-14.42L6.66-14.42Q9.25-14.42 10.82-13.06Q12.39-11.70 12.61-9.31L12.61-9.31L9.19-9.31Q9.15-10.61 8.54-11.17Q7.92-11.74 6.66-11.74L6.66-11.74Q5.38-11.74 4.79-10.78Q4.19-9.82 4.16-7.72L4.16-7.72L4.16-6.72Q4.16-4.44 4.73-3.47Q5.30-2.49 6.70-2.49L6.70-2.49Q7.88-2.49 8.51-3.05Q9.13-3.60 9.17-4.81L9.17-4.81ZM20.44 0L20.34-1.14Q19.30 0.20 17.52 0.20L17.52 0.20Q15.78 0.20 14.89-0.82Q13.99-1.83 13.99-3.72L13.99-3.72L13.99-10.57L17.29-10.57L17.29-3.70Q17.29-2.34 18.60-2.34L18.60-2.34Q19.74-2.34 20.21-3.15L20.21-3.15L20.21-10.57L23.53-10.57L23.53 0L20.44 0ZM31.78-10.64L31.72-7.59L30.63-7.67Q29.08-7.67 28.64-6.69L28.64-6.69L28.64 0L25.35 0L25.35-10.57L28.44-10.57L28.54-9.21Q29.38-10.76 30.86-10.76L30.86-10.76Q31.39-10.76 31.78-10.64L31.78-10.64ZM41.86 0L38.56 0Q38.39-0.32 38.25-0.95L38.25-0.95Q37.34 0.20 35.71 0.20L35.71 0.20Q34.22 0.20 33.17-0.71Q32.13-1.61 32.13-2.98L32.13-2.98Q32.13-4.70 33.40-5.58Q34.67-6.46 37.09-6.46L37.09-6.46L38.11-6.46L38.11-7.01Q38.11-8.47 36.85-8.47L36.85-8.47Q35.67-8.47 35.67-7.31L35.67-7.31L32.38-7.31Q32.38-8.85 33.69-9.80Q34.99-10.76 37.01-10.76Q39.03-10.76 40.21-9.78Q41.38-8.79 41.41-7.07L41.41-7.07L41.41-2.39Q41.43-0.94 41.86-0.17L41.86-0.17L41.86 0ZM36.50-2.15L36.50-2.15Q37.12-2.15 37.52-2.41Q37.93-2.68 38.11-3.01L38.11-3.01L38.11-4.70L37.15-4.70Q35.43-4.70 35.43-3.15L35.43-3.15Q35.43-2.71 35.73-2.43Q36.04-2.15 36.50-2.15ZM55.02-7.60L55.02-1.76Q54.23-0.88 52.71-0.34Q51.18 0.20 49.37 0.20L49.37 0.20Q46.57 0.20 44.90-1.51Q43.23-3.22 43.12-6.27L43.12-6.27L43.11-7.50Q43.11-9.60 43.85-11.17Q44.59-12.73 45.97-13.58Q47.35-14.42 49.17-14.42L49.17-14.42Q51.83-14.42 53.30-13.21Q54.77-11.99 55.01-9.58L55.01-9.58L51.71-9.58Q51.53-10.77 50.95-11.28Q50.36-11.79 49.29-11.79L49.29-11.79Q48.00-11.79 47.29-10.69Q46.59-9.60 46.58-7.57L46.58-7.57L46.58-6.71Q46.58-4.58 47.31-3.51Q48.04-2.44 49.60-2.44L49.60-2.44Q50.94-2.44 51.59-3.04L51.59-3.04L51.59-5.24L49.21-5.24L49.21-7.60L55.02-7.60ZM61.97 0.20L61.97 0.20Q59.54 0.20 58.04-1.25Q56.53-2.71 56.53-5.03L56.53-5.03L56.53-5.30Q56.53-6.92 57.13-8.16Q57.73-9.40 58.89-10.08Q60.04-10.76 61.62-10.76L61.62-10.76Q63.85-10.76 65.14-9.38Q66.43-8.00 66.43-5.53L66.43-5.53L66.43-4.25L59.88-4.25Q60.06-3.36 60.65-2.85Q61.25-2.34 62.20-2.34L62.20-2.34Q63.76-2.34 64.64-3.44L64.64-3.44L66.14-1.66Q65.53-0.81 64.40-0.31Q63.27 0.20 61.97 0.20ZM61.60-8.22L61.60-8.22Q60.16-8.22 59.88-6.31L59.88-6.31L63.20-6.31L63.20-6.56Q63.22-7.35 62.80-7.79Q62.38-8.22 61.60-8.22ZM67.69-10.57L70.77-10.57L70.88-9.33Q71.97-10.76 73.90-10.76L73.90-10.76Q75.55-10.76 76.36-9.78Q77.18-8.79 77.21-6.81L77.21-6.81L77.21 0L73.91 0L73.91-6.67Q73.91-7.47 73.58-7.85Q73.26-8.22 72.41-8.22L72.41-8.22Q71.45-8.22 70.98-7.46L70.98-7.46L70.98 0L67.69 0L67.69-10.57ZM82.50-10.57L82.50 0L79.20 0L79.20-10.57L82.50-10.57ZM79.00-13.29L79.00-13.29Q79.00-13.99 79.51-14.44Q80.02-14.89 80.83-14.89Q81.64-14.89 82.15-14.44Q82.66-13.99 82.66-13.29Q82.66-12.59 82.15-12.14Q81.64-11.69 80.83-11.69Q80.02-11.69 79.51-12.14Q79.00-12.59 79.00-13.29ZM89.64 0.20L89.64 0.20Q87.21 0.20 85.70-1.25Q84.20-2.71 84.20-5.03L84.20-5.03L84.20-5.30Q84.20-6.92 84.80-8.16Q85.40-9.40 86.55-10.08Q87.71-10.76 89.29-10.76L89.29-10.76Q91.51-10.76 92.80-9.38Q94.09-8.00 94.09-5.53L94.09-5.53L94.09-4.25L87.55-4.25Q87.72-3.36 88.32-2.85Q88.92-2.34 89.86-2.34L89.86-2.34Q91.43-2.34 92.30-3.44L92.30-3.44L93.81-1.66Q93.19-0.81 92.07-0.31Q90.94 0.20 89.64 0.20ZM89.27-8.22L89.27-8.22Q87.82-8.22 87.55-6.31L87.55-6.31L90.87-6.31L90.87-6.56Q90.89-7.35 90.47-7.79Q90.05-8.22 89.27-8.22Z"></path></g></g></svg></svg></g></g></svg>